<?xml version="1.0" encoding="utf-8"?>
<!-- Generator: Adobe Illustrator 23.0.4, SVG Export Plug-In . SVG Version: 6.00 Build 0)  -->
<svg version="1.1" id="Layer_1" xmlns="http://www.w3.org/2000/svg" xmlns:xlink="http://www.w3.org/1999/xlink" x="0px" y="0px"
	 viewBox="0 0 202.09 77.36" style="enable-background:new 0 0 202.09 77.36;" xml:space="preserve">
<style type="text/css">
	.st0{fill:#28A8E0;}
	.st1{fill:#2AADE3;}
	.st2{fill:#8680BD;}
	.st3{fill:#93C854;}
	.st4{fill:#A4DFF9;}
	.st5{fill:#6ECEF5;}
</style>
<g>
	<path class="st0" d="M79.68,67.66v-6.27h1.72c0.67,0,1.21,0.25,1.63,0.76c0.42,0.5,0.63,1.15,0.63,1.94v0.89
		c0,0.79-0.21,1.44-0.63,1.94c-0.42,0.5-0.96,0.75-1.63,0.75H79.68z M80.55,62.05V67h0.82c0.44,0,0.79-0.18,1.04-0.56
		c0.26-0.38,0.39-0.87,0.39-1.47v-0.9c0-0.59-0.13-1.08-0.39-1.45c-0.25-0.37-0.6-0.56-1.04-0.56H80.55z"/>
	<path class="st0" d="M86.92,67.66c-0.03-0.11-0.06-0.21-0.08-0.31c-0.02-0.1-0.03-0.2-0.04-0.31c-0.13,0.21-0.29,0.38-0.49,0.51
		c-0.19,0.14-0.41,0.2-0.65,0.2c-0.39,0-0.71-0.13-0.93-0.37c-0.22-0.25-0.33-0.58-0.33-0.99c0-0.45,0.15-0.8,0.45-1.05
		c0.31-0.25,0.73-0.38,1.28-0.38h0.65v-0.48c0-0.28-0.06-0.5-0.19-0.66c-0.12-0.16-0.31-0.24-0.54-0.24c-0.21,0-0.38,0.07-0.51,0.22
		c-0.12,0.14-0.19,0.32-0.19,0.53h-0.83l-0.01-0.03c-0.01-0.36,0.13-0.68,0.43-0.95c0.31-0.28,0.69-0.42,1.17-0.42
		c0.46,0,0.83,0.14,1.11,0.41c0.29,0.27,0.42,0.66,0.42,1.16v2.16c0,0.18,0.02,0.36,0.03,0.52c0.02,0.17,0.06,0.34,0.11,0.49H86.92z
		 M85.86,67.09c0.2,0,0.39-0.06,0.56-0.19c0.17-0.12,0.29-0.27,0.37-0.45V65.5h-0.66c-0.27,0-0.48,0.09-0.62,0.26
		c-0.15,0.17-0.22,0.38-0.22,0.63c0,0.21,0.05,0.38,0.15,0.51C85.53,67.02,85.68,67.09,85.86,67.09"/>
	<path class="st0" d="M89.77,61.84v1.16h0.73v0.62h-0.73v2.77c0,0.24,0.03,0.41,0.11,0.52c0.07,0.1,0.16,0.16,0.28,0.16
		c0.07,0,0.13-0.01,0.19-0.01c0.06-0.01,0.12-0.02,0.21-0.04l0.08,0.6c-0.09,0.04-0.2,0.07-0.33,0.1c-0.12,0.03-0.24,0.04-0.37,0.04
		c-0.33,0-0.59-0.11-0.77-0.33c-0.19-0.22-0.27-0.56-0.27-1.03v-2.77h-0.61v-0.62h0.61v-1.16H89.77z"/>
	<path class="st0" d="M93.74,67.66c-0.03-0.11-0.06-0.21-0.08-0.31c-0.02-0.1-0.03-0.2-0.04-0.31c-0.13,0.21-0.29,0.38-0.49,0.51
		c-0.2,0.14-0.41,0.2-0.65,0.2c-0.39,0-0.7-0.13-0.92-0.37c-0.22-0.25-0.33-0.58-0.33-0.99c0-0.45,0.15-0.8,0.45-1.05
		c0.3-0.25,0.73-0.38,1.28-0.38h0.65v-0.48c0-0.28-0.06-0.5-0.19-0.66c-0.12-0.16-0.3-0.24-0.53-0.24c-0.21,0-0.38,0.07-0.51,0.22
		c-0.12,0.14-0.19,0.32-0.19,0.53h-0.83l-0.01-0.03c-0.01-0.36,0.13-0.68,0.43-0.95c0.3-0.28,0.69-0.42,1.17-0.42
		c0.46,0,0.83,0.14,1.12,0.41c0.29,0.27,0.43,0.66,0.43,1.16v2.16c0,0.18,0.01,0.36,0.03,0.52c0.02,0.17,0.06,0.34,0.11,0.49H93.74z
		 M92.68,67.09c0.2,0,0.39-0.06,0.56-0.19c0.17-0.12,0.29-0.27,0.37-0.45V65.5h-0.67c-0.26,0-0.47,0.09-0.62,0.26
		c-0.15,0.17-0.23,0.38-0.23,0.63c0,0.21,0.05,0.38,0.15,0.51C92.35,67.02,92.5,67.09,92.68,67.09"/>
	<rect x="105.25" y="61.39" class="st0" width="0.87" height="6.27"/>
	<path class="st0" d="M108.09,63l0.05,0.69c0.12-0.24,0.29-0.44,0.49-0.58c0.2-0.13,0.42-0.2,0.67-0.2c0.4,0,0.72,0.15,0.95,0.45
		c0.23,0.3,0.34,0.78,0.34,1.41v2.89h-0.87v-2.88c0-0.43-0.06-0.74-0.18-0.92c-0.13-0.17-0.31-0.26-0.57-0.26
		c-0.18,0-0.34,0.06-0.47,0.17c-0.14,0.11-0.25,0.26-0.33,0.45v3.45h-0.87V63H108.09z"/>
	<path class="st0" d="M113.75,66.5c0-0.18-0.06-0.34-0.17-0.46c-0.12-0.12-0.35-0.26-0.68-0.41c-0.48-0.19-0.84-0.39-1.06-0.6
		c-0.23-0.21-0.35-0.48-0.35-0.82c0-0.36,0.14-0.66,0.43-0.92c0.28-0.25,0.65-0.38,1.11-0.38c0.48,0,0.87,0.14,1.15,0.41
		c0.28,0.27,0.42,0.61,0.4,1.01l0,0.03h-0.84c0-0.22-0.06-0.41-0.19-0.57c-0.12-0.16-0.3-0.24-0.52-0.24
		c-0.22,0-0.38,0.06-0.51,0.18c-0.12,0.12-0.18,0.27-0.18,0.44c0,0.17,0.06,0.32,0.16,0.42c0.1,0.1,0.33,0.24,0.68,0.41
		c0.49,0.17,0.85,0.37,1.09,0.59c0.24,0.22,0.35,0.51,0.35,0.86c0,0.38-0.14,0.7-0.43,0.93c-0.29,0.25-0.68,0.37-1.16,0.37
		c-0.52,0-0.92-0.15-1.21-0.44c-0.3-0.29-0.44-0.63-0.43-1.02l0.01-0.03h0.82c0.01,0.3,0.09,0.52,0.25,0.65
		c0.15,0.14,0.35,0.2,0.58,0.2c0.22,0,0.4-0.06,0.53-0.18C113.69,66.83,113.75,66.68,113.75,66.5"/>
	<path class="st0" d="M116.35,61.78h-0.87v-0.84h0.87V61.78z M116.35,67.66h-0.87V63h0.87V67.66z"/>
	<path class="st0" d="M117.24,65.15c0-0.67,0.14-1.21,0.42-1.62c0.27-0.41,0.65-0.61,1.14-0.61c0.24,0,0.44,0.06,0.62,0.16
		c0.17,0.11,0.33,0.27,0.46,0.48l0.06-0.56h0.75v4.63c0,0.6-0.16,1.07-0.47,1.4c-0.32,0.34-0.76,0.5-1.32,0.5
		c-0.2,0-0.41-0.02-0.63-0.09c-0.22-0.06-0.42-0.14-0.6-0.24l0.19-0.66c0.15,0.09,0.31,0.16,0.48,0.21
		c0.18,0.05,0.36,0.08,0.55,0.08c0.32,0,0.56-0.1,0.72-0.3c0.15-0.21,0.23-0.5,0.23-0.9v-0.42c-0.12,0.18-0.27,0.31-0.44,0.41
		c-0.17,0.09-0.37,0.13-0.59,0.13c-0.49,0-0.87-0.18-1.14-0.55c-0.27-0.37-0.41-0.86-0.41-1.48V65.15z M118.12,65.72
		c0,0.41,0.07,0.74,0.21,0.99c0.15,0.25,0.38,0.37,0.68,0.37c0.19,0,0.35-0.05,0.48-0.15c0.13-0.09,0.25-0.24,0.33-0.41V64.2
		c-0.08-0.18-0.2-0.33-0.33-0.44c-0.13-0.1-0.29-0.16-0.47-0.16c-0.31,0-0.53,0.14-0.68,0.43c-0.15,0.29-0.22,0.66-0.22,1.12V65.72z
		"/>
	<path class="st0" d="M122.55,63.63c0.13-0.22,0.29-0.4,0.48-0.52c0.19-0.13,0.4-0.19,0.64-0.19c0.41,0,0.74,0.15,0.98,0.47
		c0.23,0.31,0.35,0.79,0.35,1.43v2.86h-0.88V64.8c0-0.43-0.06-0.74-0.18-0.93c-0.13-0.19-0.31-0.28-0.56-0.28
		c-0.18,0-0.34,0.05-0.48,0.15c-0.14,0.1-0.26,0.24-0.35,0.42v3.5h-0.87v-6.72h0.87V63.63z"/>
	<path class="st0" d="M127.09,61.84v1.16h0.73v0.62h-0.73v2.77c0,0.24,0.04,0.41,0.1,0.52c0.07,0.1,0.17,0.16,0.29,0.16
		c0.06,0,0.13-0.01,0.19-0.01c0.05-0.01,0.12-0.02,0.21-0.04l0.09,0.6c-0.1,0.04-0.21,0.07-0.33,0.1c-0.12,0.03-0.24,0.04-0.37,0.04
		c-0.33,0-0.59-0.11-0.77-0.33c-0.19-0.22-0.28-0.56-0.28-1.03v-2.77h-0.61v-0.62h0.61v-1.16H127.09z"/>
	<path class="st0" d="M130.85,66.5c0-0.18-0.06-0.34-0.17-0.46c-0.12-0.12-0.35-0.26-0.68-0.41c-0.48-0.19-0.84-0.39-1.07-0.6
		c-0.23-0.21-0.34-0.48-0.34-0.82c0-0.36,0.13-0.66,0.42-0.92c0.28-0.25,0.65-0.38,1.12-0.38c0.48,0,0.85,0.14,1.14,0.41
		c0.28,0.27,0.41,0.61,0.41,1.01l-0.01,0.03h-0.84c0-0.22-0.06-0.41-0.19-0.57c-0.12-0.16-0.29-0.24-0.52-0.24
		c-0.22,0-0.39,0.06-0.51,0.18c-0.12,0.12-0.18,0.27-0.18,0.44c0,0.17,0.05,0.32,0.16,0.42c0.1,0.1,0.33,0.24,0.68,0.41
		c0.49,0.17,0.85,0.37,1.09,0.59c0.23,0.22,0.36,0.51,0.36,0.86c0,0.38-0.15,0.7-0.44,0.93c-0.29,0.25-0.68,0.37-1.16,0.37
		c-0.51,0-0.91-0.15-1.21-0.44c-0.3-0.29-0.44-0.63-0.43-1.02l0.01-0.03h0.82c0.01,0.3,0.09,0.52,0.25,0.65
		c0.16,0.14,0.35,0.2,0.58,0.2c0.23,0,0.41-0.06,0.54-0.18C130.79,66.83,130.85,66.68,130.85,66.5"/>
	<polygon class="st0" points="145.86,62.05 144.25,62.05 144.25,67.66 143.38,67.66 143.38,62.05 141.78,62.05 141.78,61.39 
		145.86,61.39 	"/>
	<path class="st0" d="M148.19,63.74l-0.41-0.02c-0.18,0-0.33,0.05-0.45,0.16c-0.11,0.11-0.21,0.27-0.27,0.46v3.32h-0.87V63h0.8
		l0.07,0.7c0.1-0.25,0.23-0.44,0.38-0.58c0.15-0.14,0.34-0.21,0.55-0.21c0.05,0,0.11,0,0.17,0.01c0.06,0.01,0.1,0.02,0.14,0.04
		L148.19,63.74z"/>
	<path class="st0" d="M151.29,67.66c-0.03-0.11-0.05-0.21-0.08-0.31c-0.02-0.1-0.03-0.2-0.04-0.31c-0.13,0.21-0.29,0.38-0.49,0.51
		c-0.19,0.14-0.41,0.2-0.65,0.2c-0.39,0-0.7-0.13-0.92-0.37c-0.23-0.25-0.34-0.58-0.34-0.99c0-0.45,0.16-0.8,0.46-1.05
		c0.3-0.25,0.73-0.38,1.27-0.38h0.65v-0.48c0-0.28-0.06-0.5-0.19-0.66c-0.13-0.16-0.31-0.24-0.54-0.24c-0.21,0-0.38,0.07-0.51,0.22
		c-0.12,0.14-0.19,0.32-0.19,0.53h-0.83l-0.02-0.03c-0.01-0.36,0.13-0.68,0.43-0.95c0.3-0.28,0.69-0.42,1.17-0.42
		c0.46,0,0.83,0.14,1.12,0.41c0.29,0.27,0.43,0.66,0.43,1.16v2.16c0,0.18,0.01,0.36,0.03,0.52c0.02,0.17,0.05,0.34,0.11,0.49H151.29
		z M150.23,67.09c0.2,0,0.39-0.06,0.56-0.19c0.17-0.12,0.29-0.27,0.37-0.45V65.5h-0.66c-0.26,0-0.48,0.09-0.62,0.26
		c-0.15,0.17-0.22,0.38-0.22,0.63c0,0.21,0.05,0.38,0.15,0.51C149.9,67.02,150.05,67.09,150.23,67.09"/>
	<path class="st0" d="M153.82,63l0.05,0.69c0.13-0.24,0.29-0.44,0.49-0.58c0.2-0.13,0.43-0.2,0.68-0.2c0.41,0,0.72,0.15,0.95,0.45
		c0.23,0.3,0.34,0.78,0.34,1.41v2.89h-0.87v-2.88c0-0.43-0.06-0.74-0.18-0.92c-0.13-0.17-0.3-0.26-0.56-0.26
		c-0.17,0-0.33,0.06-0.47,0.17c-0.14,0.11-0.25,0.26-0.34,0.45v3.45h-0.87V63H153.82z"/>
	<path class="st0" d="M159.49,66.5c0-0.18-0.06-0.34-0.18-0.46c-0.12-0.12-0.34-0.26-0.67-0.41c-0.48-0.19-0.84-0.39-1.07-0.6
		c-0.23-0.21-0.34-0.48-0.34-0.82c0-0.36,0.14-0.66,0.42-0.92c0.28-0.25,0.65-0.38,1.11-0.38c0.48,0,0.86,0.14,1.14,0.41
		c0.29,0.27,0.42,0.61,0.41,1.01l0,0.03h-0.84c0-0.22-0.06-0.41-0.19-0.57c-0.12-0.16-0.3-0.24-0.52-0.24
		c-0.22,0-0.39,0.06-0.51,0.18c-0.12,0.12-0.18,0.27-0.18,0.44c0,0.17,0.05,0.32,0.16,0.42c0.1,0.1,0.33,0.24,0.68,0.41
		c0.49,0.17,0.85,0.37,1.09,0.59c0.24,0.22,0.35,0.51,0.35,0.86c0,0.38-0.14,0.7-0.44,0.93c-0.29,0.25-0.68,0.37-1.16,0.37
		c-0.52,0-0.92-0.15-1.21-0.44c-0.3-0.29-0.44-0.63-0.42-1.02l0.01-0.03h0.81c0.01,0.3,0.1,0.52,0.25,0.65
		c0.15,0.14,0.34,0.2,0.58,0.2c0.23,0,0.4-0.06,0.53-0.18C159.42,66.83,159.49,66.68,159.49,66.5"/>
	<path class="st0" d="M161.46,67.66v-4.04h-0.61V63h0.61v-0.6c0-0.49,0.12-0.88,0.36-1.15c0.24-0.27,0.57-0.41,0.99-0.41
		c0.08,0,0.17,0.01,0.26,0.03c0.09,0.01,0.19,0.04,0.3,0.06l-0.08,0.64c-0.05-0.01-0.1-0.02-0.17-0.03
		c-0.06-0.01-0.12-0.02-0.19-0.02c-0.18,0-0.33,0.08-0.43,0.23c-0.1,0.15-0.15,0.36-0.15,0.64V63h0.81v0.62h-0.81v4.04H161.46z"/>
	<path class="st0" d="M163.66,65.04c0-0.62,0.16-1.12,0.48-1.53c0.33-0.4,0.77-0.6,1.33-0.6c0.56,0,1,0.2,1.33,0.6
		c0.32,0.39,0.48,0.9,0.48,1.53v0.59c0,0.62-0.16,1.13-0.48,1.53c-0.32,0.39-0.76,0.59-1.33,0.59c-0.56,0-1.01-0.2-1.33-0.59
		c-0.32-0.4-0.48-0.91-0.48-1.53V65.04z M164.53,65.63c0,0.42,0.08,0.78,0.23,1.05c0.16,0.27,0.39,0.41,0.71,0.41
		c0.31,0,0.55-0.14,0.7-0.41c0.16-0.27,0.23-0.63,0.23-1.05v-0.59c0-0.43-0.07-0.77-0.23-1.04c-0.16-0.28-0.39-0.42-0.7-0.42
		c-0.31,0-0.55,0.14-0.71,0.41c-0.15,0.27-0.23,0.62-0.23,1.05V65.63z"/>
	<path class="st0" d="M170.13,63.74l-0.41-0.02c-0.18,0-0.34,0.05-0.46,0.16c-0.12,0.11-0.21,0.27-0.27,0.46v3.32h-0.87V63h0.79
		l0.06,0.7c0.1-0.25,0.23-0.44,0.39-0.58c0.16-0.14,0.34-0.21,0.54-0.21c0.06,0,0.12,0,0.18,0.01c0.06,0.01,0.11,0.02,0.14,0.04
		L170.13,63.74z"/>
	<path class="st0" d="M171.65,63l0.04,0.63c0.13-0.23,0.29-0.41,0.48-0.53c0.19-0.13,0.42-0.19,0.69-0.19
		c0.26,0,0.47,0.07,0.66,0.21c0.18,0.14,0.32,0.36,0.42,0.65c0.12-0.27,0.28-0.48,0.48-0.63c0.2-0.15,0.44-0.23,0.72-0.23
		c0.4,0,0.71,0.16,0.93,0.49c0.23,0.33,0.35,0.82,0.35,1.49v2.77h-0.88v-2.78c0-0.48-0.05-0.81-0.18-1
		c-0.11-0.19-0.29-0.29-0.51-0.29c-0.2,0-0.37,0.08-0.51,0.23c-0.13,0.15-0.23,0.35-0.29,0.6c0-0.02,0,0.01,0.01,0.11
		c0,0.09,0.01,0.16,0.01,0.21v2.92h-0.87v-2.78c0-0.46-0.07-0.8-0.19-0.99c-0.12-0.2-0.3-0.3-0.52-0.3c-0.18,0-0.34,0.05-0.47,0.15
		c-0.13,0.1-0.23,0.25-0.3,0.43v3.49h-0.88V63H171.65z"/>
	<path class="st0" d="M179.79,67.66c-0.03-0.11-0.06-0.21-0.08-0.31c-0.02-0.1-0.03-0.2-0.04-0.31c-0.13,0.21-0.29,0.38-0.48,0.51
		c-0.19,0.14-0.42,0.2-0.65,0.2c-0.39,0-0.7-0.13-0.93-0.37c-0.22-0.25-0.33-0.58-0.33-0.99c0-0.45,0.15-0.8,0.45-1.05
		c0.3-0.25,0.73-0.38,1.28-0.38h0.65v-0.48c0-0.28-0.06-0.5-0.19-0.66c-0.13-0.16-0.31-0.24-0.54-0.24c-0.21,0-0.38,0.07-0.51,0.22
		c-0.13,0.14-0.19,0.32-0.19,0.53h-0.84l-0.01-0.03c-0.01-0.36,0.13-0.68,0.43-0.95c0.3-0.28,0.69-0.42,1.17-0.42
		c0.46,0,0.83,0.14,1.12,0.41c0.29,0.27,0.43,0.66,0.43,1.16v2.16c0,0.18,0.01,0.36,0.03,0.52c0.02,0.17,0.06,0.34,0.1,0.49H179.79z
		 M178.74,67.09c0.2,0,0.39-0.06,0.56-0.19c0.17-0.12,0.29-0.27,0.37-0.45V65.5H179c-0.27,0-0.48,0.09-0.62,0.26
		c-0.15,0.17-0.22,0.38-0.22,0.63c0,0.21,0.05,0.38,0.15,0.51C178.41,67.02,178.55,67.09,178.74,67.09"/>
	<path class="st0" d="M182.65,61.84v1.16h0.72v0.62h-0.72v2.77c0,0.24,0.03,0.41,0.1,0.52c0.07,0.1,0.17,0.16,0.28,0.16
		c0.07,0,0.13-0.01,0.19-0.01c0.05-0.01,0.13-0.02,0.21-0.04l0.09,0.6c-0.1,0.04-0.21,0.07-0.33,0.1c-0.12,0.03-0.25,0.04-0.38,0.04
		c-0.33,0-0.59-0.11-0.76-0.33c-0.19-0.22-0.28-0.56-0.28-1.03v-2.77h-0.61v-0.62h0.61v-1.16H182.65z"/>
	<path class="st0" d="M185.17,61.78h-0.88v-0.84h0.88V61.78z M185.17,67.66h-0.88V63h0.88V67.66z"/>
	<path class="st0" d="M186.05,65.04c0-0.62,0.16-1.12,0.49-1.53c0.33-0.4,0.77-0.6,1.33-0.6s1,0.2,1.33,0.6
		c0.33,0.39,0.49,0.9,0.49,1.53v0.59c0,0.62-0.16,1.13-0.49,1.53c-0.33,0.39-0.77,0.59-1.33,0.59c-0.57,0-1.01-0.2-1.33-0.59
		c-0.32-0.4-0.49-0.91-0.49-1.53V65.04z M186.93,65.63c0,0.42,0.08,0.78,0.23,1.05c0.15,0.27,0.4,0.41,0.71,0.41
		c0.31,0,0.54-0.14,0.7-0.41c0.16-0.27,0.24-0.63,0.24-1.05v-0.59c0-0.43-0.08-0.77-0.24-1.04c-0.16-0.28-0.39-0.42-0.7-0.42
		c-0.31,0-0.55,0.14-0.71,0.41c-0.15,0.27-0.23,0.62-0.23,1.05V65.63z"/>
	<path class="st0" d="M191.31,63l0.04,0.69c0.13-0.24,0.29-0.44,0.49-0.58c0.2-0.13,0.42-0.2,0.67-0.2c0.41,0,0.73,0.15,0.95,0.45
		c0.22,0.3,0.34,0.78,0.34,1.41v2.89h-0.87v-2.88c0-0.43-0.07-0.74-0.19-0.92c-0.12-0.17-0.31-0.26-0.56-0.26
		c-0.18,0-0.34,0.06-0.48,0.17c-0.14,0.11-0.24,0.26-0.33,0.45v3.45h-0.88V63H191.31z"/>
	<polygon class="st0" points="98.74,66.67 98.74,62.38 101.6,64.53 	"/>
	<polygon class="st0" points="135.59,66.67 135.59,62.38 138.45,64.53 	"/>
	<path class="st1" d="M79.48,53.84l14.6-32.12c0.21-0.45,0.49-0.67,0.85-0.67c0.35,0,0.62,0.22,0.81,0.67l14.6,32.12
		c0.06,0.14,0.09,0.28,0.09,0.41c0,0.59-0.31,0.88-0.93,0.88c-0.37,0-0.63-0.17-0.79-0.52l-5.08-11.16H86.2l-5.05,11.16
		c-0.18,0.35-0.45,0.52-0.82,0.52c-0.63,0-0.94-0.29-0.94-0.88C79.39,54.12,79.42,53.98,79.48,53.84 M102.81,41.64l-7.88-17.37
		l-7.92,17.37H102.81z"/>
	<path class="st1" d="M112.34,32.88h2.01v-5.66c0-1.67,0.6-3.1,1.81-4.28c1.21-1.18,2.66-1.77,4.35-1.77h1.17
		c0.6,0,0.91,0.31,0.91,0.91c0,0.6-0.3,0.9-0.91,0.9h-1.17c-1.21,0-2.23,0.41-3.08,1.24c-0.85,0.83-1.27,1.82-1.27,2.99v5.66h5.51
		c0.6,0,0.91,0.3,0.91,0.91c0,0.6-0.3,0.9-0.91,0.9h-5.51v19.54c0,0.6-0.3,0.9-0.9,0.9c-0.6,0-0.91-0.31-0.91-0.9V34.69h-2.01
		c-0.61,0-0.9-0.3-0.9-0.9C111.43,33.18,111.73,32.88,112.34,32.88"/>
	<path class="st1" d="M126.02,32.88h2.01v-5.66c0-1.67,0.61-3.1,1.82-4.28c1.21-1.18,2.65-1.77,4.35-1.77h1.17
		c0.6,0,0.9,0.31,0.9,0.91c0,0.6-0.3,0.9-0.9,0.9h-1.17c-1.21,0-2.23,0.41-3.08,1.24c-0.85,0.83-1.27,1.82-1.27,2.99v5.66h5.52
		c0.6,0,0.9,0.3,0.9,0.91c0,0.6-0.3,0.9-0.9,0.9h-5.52v19.54c0,0.6-0.31,0.9-0.9,0.9c-0.61,0-0.91-0.31-0.91-0.9V34.69h-2.01
		c-0.6,0-0.9-0.3-0.9-0.9C125.12,33.18,125.42,32.88,126.02,32.88"/>
	<path class="st1" d="M142.57,28.47c0,0.98-0.48,1.46-1.42,1.46c-0.97,0-1.47-0.48-1.47-1.46c0-0.95,0.49-1.43,1.47-1.43
		C142.09,27.04,142.57,27.52,142.57,28.47 M140.24,54.23V33.78c0-0.6,0.3-0.9,0.91-0.9c0.6,0,0.91,0.3,0.91,0.9v20.45
		c0,0.6-0.31,0.9-0.91,0.9C140.54,55.13,140.24,54.83,140.24,54.23"/>
	<path class="st1" d="M148.07,33.78v0.85c1.21-1.17,2.66-1.75,4.35-1.75h8.46c1.68,0,3.12,0.59,4.34,1.75
		c1.22,1.17,1.83,2.59,1.83,4.26v15.34c0,0.6-0.31,0.9-0.9,0.9c-0.61,0-0.91-0.3-0.91-0.9V38.89c0-1.17-0.43-2.16-1.28-2.98
		c-0.86-0.82-1.88-1.23-3.07-1.23h-8.46c-1.21,0-2.24,0.42-3.09,1.24c-0.85,0.83-1.27,1.82-1.27,2.96v15.34c0,0.6-0.3,0.9-0.91,0.9
		c-0.6,0-0.9-0.3-0.9-0.9V33.78c0-0.6,0.3-0.91,0.9-0.91C147.77,32.88,148.07,33.18,148.07,33.78"/>
	<path class="st1" d="M188.82,55.13h-12.85c-1.65,0-3.1-0.59-4.32-1.75c-1.22-1.17-1.84-2.59-1.84-4.26V38.89
		c0-1.67,0.6-3.1,1.81-4.26c1.21-1.17,2.66-1.75,4.35-1.75h12.85c1.68,0,3.12,0.59,4.33,1.75c1.22,1.16,1.83,2.59,1.83,4.26
		c0,1.65-0.6,3.07-1.81,4.25c-1.21,1.18-2.66,1.77-4.35,1.77h-17.2v4.21c0,1.15,0.43,2.13,1.29,2.96c0.86,0.83,1.88,1.24,3.07,1.24
		h12.85c0.6,0,0.91,0.3,0.91,0.91C189.72,54.83,189.42,55.13,188.82,55.13 M171.62,43.1h17.2c1.21,0,2.23-0.42,3.08-1.23
		c0.85-0.83,1.27-1.82,1.27-2.97c0-1.17-0.43-2.16-1.28-2.98c-0.86-0.82-1.88-1.23-3.07-1.23h-12.85c-1.21,0-2.24,0.42-3.08,1.24
		c-0.85,0.83-1.27,1.82-1.27,2.96V43.1z"/>
	<polygon class="st2" points="57.07,53.27 29.65,32.25 50.06,24.56 60.37,42.36 	"/>
	<polygon class="st3" points="60.37,42.36 50.07,24.56 67.65,18.16 	"/>
	<polygon class="st4" points="60.37,42.36 74.41,66.63 57.1,53.27 	"/>
	<polygon class="st5" points="50.06,24.58 29.56,32.32 42.06,10.63 	"/>
	<polygon class="st1" points="74.41,66.63 9.63,66.63 29.6,32.12 	"/>
</g>
</svg>
